<svg width="16" height="14" viewBox="0 0 16 14" fill="none" xmlns="http://www.w3.org/2000/svg">
<path d="M16 1.53902C15.4111 1.80055 14.7785 1.97654 14.1145 2.05592C14.7927 1.64978 15.3126 1.00673 15.5576 0.239991C14.9237 0.615977 14.221 0.889197 13.4727 1.03688C12.874 0.398754 12.0211 0 11.0771 0C9.26426 0 7.79478 1.4701 7.79478 3.28234C7.79478 3.53956 7.82431 3.79062 7.8797 4.03C5.1518 3.89339 2.73343 2.58636 1.1138 0.599977C0.831968 1.08488 0.670128 1.64855 0.670128 2.25099C0.670128 3.38941 1.24918 4.39429 2.12976 4.98258C1.59194 4.96535 1.0855 4.81766 0.643052 4.57213C0.643052 4.58629 0.643052 4.59921 0.643052 4.61336C0.643052 6.20407 1.77409 7.53079 3.27618 7.8317C3.00112 7.90677 2.71066 7.94677 2.41098 7.94677C2.19992 7.94677 1.99377 7.92585 1.79378 7.88831C2.21161 9.19226 3.42387 10.1418 4.86012 10.1682C3.73709 11.0488 2.32176 11.5737 0.783355 11.5737C0.518749 11.5737 0.257221 11.5583 0 11.5276C1.45287 12.4586 3.17772 13.002 5.03181 13.002C11.0697 13.002 14.3705 8.00031 14.3705 3.66263C14.3705 3.52048 14.3674 3.37895 14.3613 3.23803C15.0031 2.77466 15.56 2.19684 16 1.53902Z" fill="black"/>
</svg>
