<svg width="16" height="16" viewBox="0 0 16 16" fill="none" xmlns="http://www.w3.org/2000/svg">
<path d="M8 0C3.58854 0 0 3.58854 0 8C0 12.4115 3.58854 16 8 16C12.4115 16 16 12.4115 16 8C16 3.58854 12.4115 0 8 0ZM8 1.33333C9.6901 1.33333 11.2214 1.96875 12.3958 3C12.2708 3.17448 12.1016 3.38542 11.8333 3.64583C11.263 4.19792 10.3516 4.86198 8.95833 5.375C8.01563 3.63281 7.09115 2.32292 6.47917 1.5C6.96615 1.38802 7.47656 1.33333 8 1.33333ZM5.16667 1.95833C5.71354 2.67448 6.6875 4.0026 7.66667 5.77083C4.95573 6.48958 2.46875 6.58073 1.47917 6.58333C1.92188 4.52344 3.30729 2.82813 5.16667 1.95833ZM13.3125 3.97917C14.125 5.05469 14.6302 6.38542 14.6667 7.83333C14.0729 7.70052 13.1979 7.57031 12.0625 7.5625C11.4714 7.5599 10.8021 7.60156 10.0833 7.6875C9.91667 7.30729 9.73698 6.9401 9.5625 6.58333C11.0573 6.01042 12.0755 5.25521 12.75 4.60417C12.9792 4.38021 13.1589 4.17448 13.3125 3.97917ZM8.27083 6.97917C8.42448 7.28906 8.58073 7.60677 8.72917 7.9375C5.88021 8.72656 3.83333 11.1432 2.95833 12.3542C1.95052 11.1875 1.33333 9.66667 1.33333 8C1.33333 7.97135 1.33333 7.94531 1.33333 7.91667C2.23438 7.92708 5.09896 7.86458 8.27083 6.97917ZM12.0625 8.875C13.2526 8.875 14.0755 9.04167 14.5625 9.16667C14.2526 10.9427 13.25 12.4661 11.8333 13.4583C11.5677 11.8646 11.1302 10.349 10.6042 8.95833C11.1302 8.90625 11.6276 8.875 12.0625 8.875ZM9.25 9.1875C9.84896 10.7083 10.3516 12.3776 10.6042 14.1458C9.80729 14.4818 8.92188 14.6667 8 14.6667C6.47135 14.6667 5.0599 14.1536 3.9375 13.2917C4.6224 12.3542 6.63542 9.85938 9.25 9.1875Z" fill="black"/>
</svg>
